<svg width="64" height="24" viewBox="0 0 64 24" fill="none" xmlns="http://www.w3.org/2000/svg">
<path d="M38.0643 9.50416C39.0467 9.50416 39.8408 8.71004 39.8408 7.72181C39.8408 6.73945 39.0467 5.93945 38.0643 5.93945C37.0761 5.93945 36.2761 6.73945 36.2761 7.72181C36.2761 8.71004 37.0761 9.50416 38.0643 9.50416ZM39.2643 10.51C39.2643 11.4924 40.0643 12.2924 41.0467 12.2924C42.0349 12.2924 42.829 11.4924 42.829 10.51C42.829 9.52769 42.0349 8.72769 41.0467 8.72769C40.0643 8.72769 39.2643 9.52769 39.2643 10.51ZM43.8173 11.6336C42.8349 11.6336 42.0349 12.4277 42.0349 13.4159C42.0349 14.3983 42.8349 15.1983 43.8173 15.1983C44.8055 15.1983 45.5996 14.3983 45.5996 13.4159C45.5996 12.4277 44.8055 11.6336 43.8173 11.6336ZM40.9114 14.3395C39.929 14.3395 39.1349 15.1336 39.1349 16.1218C39.1349 17.1042 39.929 17.9042 40.9114 17.9042C41.8996 17.9042 42.6937 17.1042 42.6937 16.1218C42.6937 15.1336 41.8996 14.3395 40.9114 14.3395ZM37.8761 17.1747C36.8937 17.1747 36.0996 17.9747 36.0996 18.963C36.0996 19.9453 36.8937 20.7395 37.8761 20.7395C38.8643 20.7395 39.6584 19.9453 39.6584 18.963C39.6584 17.9747 38.8643 17.1747 37.8761 17.1747Z" fill="white"/>
<path d="M45.453 9.50416C46.4353 9.50416 47.2353 8.71004 47.2353 7.72181C47.2353 6.73945 46.4353 5.93945 45.453 5.93945C44.4706 5.93945 43.6706 6.73945 43.6706 7.72181C43.6706 8.71004 44.4706 9.50416 45.453 9.50416ZM46.6589 10.51C46.6589 11.4924 47.453 12.2924 48.4412 12.2924C49.4236 12.2924 50.2236 11.4924 50.2236 10.51C50.2236 9.52769 49.4236 8.72769 48.4412 8.72769C47.453 8.72769 46.6589 9.52769 46.6589 10.51ZM51.2118 11.6336C50.2295 11.6336 49.4295 12.4277 49.4295 13.4159C49.4295 14.3983 50.2295 15.1983 51.2118 15.1983C52.1942 15.1983 52.9942 14.3983 52.9942 13.4159C52.9942 12.4277 52.1942 11.6336 51.2118 11.6336ZM48.3059 14.3395C47.3236 14.3395 46.5236 15.1336 46.5236 16.1218C46.5236 17.1042 47.3236 17.9042 48.3059 17.9042C49.2942 17.9042 50.0883 17.1042 50.0883 16.1218C50.0883 15.1336 49.2942 14.3395 48.3059 14.3395ZM45.2706 17.1747C44.2883 17.1747 43.4883 17.9747 43.4883 18.963C43.4883 19.9453 44.2883 20.7395 45.2706 20.7395C46.2589 20.7395 47.053 19.9453 47.053 18.963C47.053 17.9747 46.2589 17.1747 45.2706 17.1747Z" fill="white"/>
<path d="M52.7108 9.50416C53.6931 9.50416 54.4931 8.71004 54.4931 7.72181C54.4931 6.73945 53.6931 5.93945 52.7108 5.93945C51.7284 5.93945 50.9284 6.73945 50.9284 7.72181C50.9284 8.71004 51.7284 9.50416 52.7108 9.50416ZM53.9167 10.51C53.9167 11.4924 54.7167 12.2924 55.699 12.2924C56.6814 12.2924 57.4814 11.4924 57.4814 10.51C57.4814 9.52769 56.6814 8.72769 55.699 8.72769C54.7167 8.72769 53.9167 9.52769 53.9167 10.51ZM58.4696 11.6336C57.4872 11.6336 56.6931 12.4277 56.6931 13.4159C56.6931 14.3983 57.4872 15.1983 58.4696 15.1983C59.4578 15.1983 60.252 14.3983 60.252 13.4159C60.252 12.4277 59.4578 11.6336 58.4696 11.6336ZM55.5696 14.3395C54.5814 14.3395 53.7872 15.1336 53.7872 16.1218C53.7872 17.1042 54.5814 17.9042 55.5696 17.9042C56.552 17.9042 57.352 17.1042 57.352 16.1218C57.352 15.1336 56.552 14.3395 55.5696 14.3395ZM52.5284 17.1747C51.5461 17.1747 50.752 17.9747 50.752 18.963C50.752 19.9453 51.5461 20.7395 52.5284 20.7395C53.5167 20.7395 54.3108 19.9453 54.3108 18.963C54.3108 17.9747 53.5167 17.1747 52.5284 17.1747Z" fill="white"/>
<path d="M4.99325 4.02677C5.05208 4.58559 4.97561 5.23265 4.5756 5.27383C4.1756 5.315 3.80502 4.89736 3.74031 4.33265C3.68149 3.77383 3.95796 3.28559 4.35796 3.23853C4.75208 3.19736 4.93443 3.46206 4.99325 4.02677Z" fill="white"/>
<path d="M4.66346 7.45671C5.00463 7.11554 5.98111 8.58024 5.9164 9.56848C5.85169 10.5626 5.18699 12.3391 5.18699 12.8038C5.18699 13.2685 5.18699 17.092 3.80463 17.1626C3.80463 17.1626 3.53993 16.5038 3.67522 15.7097C3.80463 14.9155 4.33405 12.4097 4.33405 12.0802C4.33405 11.7508 4.13405 7.98612 4.66346 7.45671Z" fill="white"/>
<path d="M11.3293 11.3512C11.7588 11.0395 13.6411 10.7571 13.7058 9.89828C13.7705 9.03946 12.9823 8.84534 12.3176 9.17475C11.6588 9.50416 9.21758 11.1571 8.42347 12.1453C7.63523 13.1336 6.5117 15.0512 6.64111 15.9042C6.77641 16.763 8.29406 17.2277 9.547 17.0277C10.7999 16.8336 16.8764 14.3865 17.7294 13.5983C18.5882 12.8042 18.2588 12.2748 17.4705 12.41C16.6764 12.5395 15.2235 13.663 12.9117 14.5865C10.6058 15.51 8.68817 15.9042 8.35876 15.1806C8.02935 14.4571 9.68229 12.5395 11.3293 11.3512Z" fill="white"/>
<path d="M25.452 8.11582C23.8049 8.25111 21.7579 10.557 20.6343 11.8805C19.5108 13.1982 18.9226 15.4452 19.1167 16.3688C19.3167 17.2923 20.3696 17.0276 20.8343 16.6335C21.2932 16.2393 23.5402 15.6452 24.9932 14.7864C26.4461 13.9276 27.5637 12.2099 27.7637 10.557C27.9637 8.90994 26.7696 8.00994 25.452 8.11582ZM26.4461 11.7511C25.9814 12.4746 24.2637 13.9923 23.0755 14.6511C21.8873 15.3099 20.6343 15.7099 20.3049 15.2452C19.9637 14.7629 21.4932 12.6688 22.352 11.8805C23.2108 11.0864 25.1226 9.23935 25.9167 9.30405C26.7049 9.36876 26.9049 11.0217 26.4461 11.7511Z" fill="white"/>
<path d="M28.7516 7.32812C29.481 7.32812 29.7398 8.05165 29.7398 8.71636C29.7398 9.3693 29.8104 11.3517 29.8104 11.3517C29.8104 11.3517 30.6692 11.0869 30.8633 10.6281C31.0633 10.1634 31.9222 9.23989 32.6457 9.30459C33.3751 9.3693 33.8986 10.4281 33.9692 11.4222C34.0339 12.4105 33.5692 15.9046 36.8045 15.6458C36.8045 15.6458 37.3986 16.5046 36.1457 16.8987C34.8927 17.2928 32.9104 16.5634 32.9104 15.1164C32.9104 13.6634 32.9104 11.2869 32.1869 11.4222C31.4574 11.5517 29.7398 13.7928 29.6104 14.9164C29.481 16.0399 29.8104 17.2928 29.2163 17.2928C28.6222 17.2928 28.028 16.1693 28.0927 15.3811C28.1574 14.5869 28.5516 13.334 28.5516 12.1458C28.5516 10.9575 28.0927 9.17518 28.1574 8.58107C28.228 7.98695 28.1574 7.32812 28.7516 7.32812Z" fill="white"/>
<path d="M4.62261 19.4159L4.55202 19.4865V19.5042C4.54418 19.5512 4.52261 19.5865 4.48732 19.6101C4.42849 19.7199 4.3481 19.8003 4.24614 19.8512L4.18732 19.8983L4.14614 19.9042L4.08732 19.9454L4.04614 19.9512L3.95202 20.0101L3.8932 19.9983L3.82849 20.0395L3.77555 20.0159L3.75202 20.0395L3.68143 20.0277L3.61673 20.0395L3.58732 20.0159L3.51673 19.9983L3.41085 19.9218L3.35202 19.8512C3.31673 19.8042 3.29908 19.765 3.29908 19.7336V19.7218L3.26379 19.6689V19.6218C3.25202 19.5924 3.25202 19.563 3.25202 19.5395V19.5159L3.23438 19.4512L3.25202 19.4101L3.23438 19.3807L3.28143 19.3101L3.26967 19.2512L3.29908 19.1571L3.31085 19.1336L3.32849 19.0454L3.31673 19.0336L3.36379 18.9865L3.36967 18.9512L3.39908 18.863L3.44614 18.763L3.51085 18.7042L3.52849 18.6748L3.55202 18.6336L3.5579 18.5983L3.61673 18.5277C3.62849 18.5218 3.64614 18.5159 3.66379 18.5101C3.67555 18.463 3.73634 18.4375 3.84614 18.4336C3.94026 18.4512 3.99908 18.4748 4.02849 18.5101C4.0579 18.5101 4.07555 18.5218 4.0932 18.5395L4.16967 18.5454L4.22261 18.6101C4.22849 18.6336 4.24026 18.6571 4.24614 18.6807L4.26967 18.7101L4.26379 18.763C4.26379 18.7826 4.26379 18.8101 4.26379 18.8454L4.28732 18.863V18.9159L4.29908 19.0277C4.2481 19.0787 4.18928 19.1081 4.12261 19.1159C4.08732 19.0512 4.04614 19.0042 3.9932 18.9748V18.8512L3.96967 18.8101V18.7807L3.93438 18.7395L3.91673 18.7277L3.88143 18.7395H3.83438C3.80496 18.7454 3.76967 18.7689 3.74026 18.8042C3.71085 18.8454 3.68732 18.8865 3.65202 18.9336V18.9689L3.62849 18.9865V19.0454L3.58143 19.1042L3.52261 19.263L3.52849 19.3042L3.49908 19.3689L3.51085 19.4512L3.48732 19.463L3.48143 19.563V19.5807L3.52849 19.6277L3.54614 19.6983L3.59908 19.7159V19.7454L3.66379 19.7571L3.71085 19.7689C3.72849 19.7571 3.74614 19.7512 3.76967 19.7512H3.79908C3.82849 19.7395 3.85202 19.7395 3.87555 19.7395C3.89516 19.7316 3.91673 19.7238 3.94026 19.7159C3.97163 19.6767 4.01281 19.6571 4.06379 19.6571H4.08732C4.09908 19.6571 4.10692 19.6512 4.11085 19.6395C4.1383 19.5963 4.18143 19.5689 4.24026 19.5571C4.30692 19.4944 4.34614 19.4454 4.3579 19.4101C4.3932 19.3924 4.41085 19.363 4.42261 19.3218L4.44614 19.3042L4.4579 19.2218C4.56771 19.2375 4.62261 19.2944 4.62261 19.3924V19.4159Z" fill="white"/>
<path d="M8.48775 18.6334L8.45834 18.751L8.32305 18.7687L8.25246 18.8157L8.2054 18.7981L8.15246 18.8275L8.09952 18.8451L8.06422 18.8687L8.05834 18.8863L7.98187 18.9216L7.93481 18.9863H7.9054C7.87011 19.0294 7.84265 19.0569 7.82305 19.0687L7.77599 19.151L7.75246 19.1569C7.74854 19.1765 7.74069 19.204 7.72893 19.2392L7.68187 19.2628L7.65834 19.304L7.62893 19.3451L7.61716 19.3981L7.59364 19.4098V19.4628L7.58187 19.4745C7.58775 19.4863 7.59363 19.4981 7.6054 19.5157L7.55246 19.5392L7.54069 19.5863L7.51128 19.6451L7.52893 19.6922L7.48187 19.7569C7.48579 19.7804 7.48775 19.7981 7.48775 19.8098V19.8216C7.48775 19.8294 7.48775 19.8373 7.48775 19.8451L7.49364 19.8745L7.55246 19.9392L7.51128 20.0216L7.46422 20.0569L7.36422 20.1098L7.22893 20.0569V19.9687L7.21128 19.9392L7.22305 19.8804C7.21716 19.8451 7.21716 19.8157 7.21716 19.7922C7.21716 19.7843 7.21716 19.7765 7.21716 19.7687V19.7392V19.704C7.19952 19.6863 7.18775 19.6687 7.18775 19.6451C7.18775 19.6275 7.19952 19.604 7.21716 19.5804C7.21716 19.5687 7.2152 19.5314 7.21128 19.4687L7.21716 19.4569L7.21128 19.4098L7.21716 19.3687L7.21128 19.3451L7.21716 19.2569L7.19952 19.2216L7.21128 19.1804L7.19952 19.1334C7.19952 19.1216 7.19952 19.104 7.19952 19.0745C7.19952 19.0392 7.1956 19.0157 7.18775 19.004L7.19952 18.9804L7.18775 18.9157L7.15246 18.8687L7.17011 18.8098L7.15834 18.7863L7.14069 18.6981V18.6745C7.13481 18.6569 7.12305 18.6392 7.12305 18.6157C7.12305 18.5687 7.17795 18.5275 7.28775 18.4922L7.37599 18.5098L7.39363 18.5804L7.43481 18.6275L7.41716 18.7275C7.42893 18.7745 7.43481 18.8275 7.44658 18.8863L7.45834 18.9451C7.45834 18.9491 7.4603 18.9628 7.46422 18.9863C7.46422 19.002 7.45834 19.0177 7.44658 19.0334L7.45834 19.104L7.44658 19.1863L7.43481 19.2216L7.44658 19.2392L7.45246 19.2745C7.47011 19.2569 7.47599 19.2392 7.48187 19.2157L7.49364 19.1628C7.50148 19.151 7.51128 19.1392 7.52305 19.1275L7.54069 19.0745L7.59364 19.0451L7.59952 19.004L7.64069 18.9628L7.67011 18.904C7.69952 18.8687 7.72893 18.851 7.75834 18.8392L7.76422 18.8275L7.79952 18.7804L7.83481 18.7687L7.84658 18.7628L7.85834 18.7392L7.89952 18.7157L7.92305 18.6922H7.94658L7.97599 18.6804L7.98775 18.6569L8.02893 18.6334L8.09364 18.5981L8.18187 18.5687C8.21716 18.5608 8.23481 18.5569 8.23481 18.5569V18.5628C8.23481 18.5628 8.23481 18.5647 8.23481 18.5687C8.24658 18.5687 8.26226 18.5628 8.28187 18.551C8.29363 18.5392 8.31128 18.5392 8.32893 18.5392C8.34069 18.5392 8.35834 18.5412 8.38187 18.5451C8.44658 18.5451 8.48187 18.5745 8.48775 18.6334Z" fill="white"/>
<path d="M11.7293 19.687C11.7293 19.7184 11.7077 19.7557 11.6646 19.7988C11.6489 19.838 11.6293 19.8694 11.6058 19.8929L11.5881 19.8988L11.5469 19.9635L11.4764 19.9753L11.4116 20.0223L11.3764 20.087H11.3352C11.3077 20.0988 11.2862 20.1047 11.2705 20.1047L11.2469 20.1341H11.2117C11.1822 20.1341 11.1528 20.1576 11.1234 20.1929L11.0705 20.1517H11.0293C10.9979 20.1517 10.9705 20.1459 10.9469 20.1341H10.8822L10.8587 20.1165C10.7646 20.1008 10.7058 20.0655 10.6822 20.0106V19.9988L10.6352 19.9753L10.6175 19.9165L10.5764 19.887V19.8341L10.5293 19.6753V19.5459L10.5528 19.487V19.4106L10.5705 19.3517L10.5646 19.3282L10.5881 19.287L10.5822 19.2929C10.5822 19.2694 10.5881 19.2459 10.5999 19.2223V19.2047L10.5881 19.1165C10.5881 19.0772 10.6077 19.04 10.6469 19.0047C10.6469 19.0047 10.6528 18.9929 10.6528 18.987C10.6489 18.9753 10.643 18.9557 10.6352 18.9282C10.6273 18.8968 10.6234 18.8753 10.6234 18.8635C10.6234 18.8321 10.6313 18.8008 10.6469 18.7694C10.6646 18.7988 10.694 18.8165 10.7293 18.8165H10.7411C10.7469 18.8047 10.7528 18.7929 10.7705 18.7812C10.7901 18.7223 10.8175 18.6714 10.8528 18.6282L10.8646 18.6165C10.8646 18.6047 10.8724 18.5753 10.8881 18.5282H10.9175L10.9234 18.5106L10.9587 18.5047C10.9646 18.487 10.9764 18.4753 10.9764 18.4694C10.9803 18.4655 11.0077 18.4517 11.0587 18.4282C11.0646 18.4047 11.0822 18.3929 11.0999 18.3753C11.1116 18.3714 11.1234 18.3674 11.1352 18.3635L11.1528 18.34C11.2175 18.3223 11.2587 18.3047 11.2764 18.3047C11.294 18.3047 11.3117 18.3106 11.3293 18.3223H11.3469L11.3764 18.3341C11.3999 18.3576 11.4352 18.3753 11.4646 18.387L11.5234 18.4341V18.4517C11.5783 18.4949 11.6058 18.5557 11.6058 18.6341L11.5999 18.6753L11.6058 18.7929L11.5764 18.8165L11.5411 18.9106L11.4705 18.987L11.4646 19.0459C11.3901 19.1008 11.3175 19.1459 11.2469 19.1812C11.2273 19.2125 11.194 19.2282 11.1469 19.2282H11.1352L11.0705 19.2753H11.0116L10.9234 19.3106L10.8587 19.2753H10.8469C10.8469 19.2988 10.8411 19.3282 10.8352 19.3635L10.8058 19.387V19.4341L10.7822 19.4929C10.7862 19.5517 10.7881 19.589 10.7881 19.6047L10.7764 19.6165C10.7764 19.6517 10.7764 19.6753 10.7705 19.687C10.7705 19.691 10.7705 19.6949 10.7705 19.6988V19.7106C10.7705 19.7282 10.7822 19.7459 10.7999 19.7576C10.8077 19.789 10.8195 19.8067 10.8352 19.8106L10.8587 19.8341L10.9411 19.8576V19.8694L10.9705 19.8753H11.094L11.1646 19.8635L11.2058 19.84L11.2234 19.8282L11.2646 19.7753H11.2764L11.3705 19.7459C11.3783 19.7302 11.394 19.7165 11.4175 19.7047L11.4293 19.6812C11.4764 19.6753 11.5058 19.6517 11.5116 19.6106C11.5469 19.5753 11.5881 19.5576 11.6469 19.5576H11.6587C11.7058 19.6106 11.7293 19.6576 11.7293 19.687ZM11.3646 18.64C11.3646 18.6341 11.3646 18.6165 11.3587 18.5988L11.3411 18.5929L11.3293 18.5988H11.3175C11.3097 18.5988 11.3038 18.5988 11.2999 18.5988C11.2999 18.5988 11.296 18.5988 11.2881 18.5988H11.2764L11.2411 18.6223L11.2117 18.6282L11.194 18.6341L11.1293 18.7106L11.0881 18.74L11.0352 18.8459L10.9999 18.8635C10.994 18.9047 10.9764 18.94 10.9469 18.9694L10.9352 18.9988C10.9587 18.9792 10.9881 18.9694 11.0234 18.9694L11.0469 18.9635L11.0587 18.9282L11.1117 18.9341L11.1411 18.887H11.1646L11.2058 18.9047L11.2234 18.8459H11.2469V18.8106L11.294 18.7988L11.3058 18.787L11.3117 18.7517L11.3587 18.6812C11.3626 18.6733 11.3646 18.6596 11.3646 18.64Z" fill="white"/>
<path d="M15.5761 18.5107L15.5349 18.5577L15.5644 18.646L15.5173 18.7048L15.4997 18.7813L15.4879 18.7989L15.4938 18.8166C15.4938 18.8519 15.4879 18.8754 15.4702 18.893L15.4644 18.8989V18.9166C15.4722 18.9323 15.4761 18.9479 15.4761 18.9636C15.4761 18.9754 15.4761 18.9872 15.4702 18.9872L15.4761 19.0048L15.4585 19.046L15.4702 19.0872L15.4408 19.1166L15.4526 19.1695L15.4761 19.193L15.4408 19.2225V19.2813L15.4173 19.3401L15.4349 19.3989L15.4114 19.4283L15.4467 19.4519L15.3997 19.5401L15.3938 19.546L15.4291 19.5519L15.4055 19.6401V19.6519C15.4055 19.6695 15.4055 19.6813 15.3997 19.693L15.4055 19.7048L15.4644 19.7107L15.5114 19.7872L15.482 19.8401L15.5232 19.8342C15.5389 19.8656 15.5487 19.8911 15.5526 19.9107L15.4938 19.9636C15.482 19.9813 15.4526 19.9989 15.4232 20.0166L15.3585 20.0519L15.3467 20.0342L15.3055 20.0519L15.1938 19.9224V19.8577C15.1781 19.8107 15.1702 19.7656 15.1702 19.7225V19.7048L15.1526 19.4872L15.182 19.3342L15.1585 19.246L15.0938 19.3519L15.0644 19.446L15.0349 19.4577L14.982 19.5401L14.8938 19.6225L14.8644 19.6695L14.7879 19.7401L14.7702 19.7872L14.6526 19.8636L14.5291 19.9989L14.4585 20.0166L14.4114 20.0519C14.3487 20.0479 14.3016 20.0244 14.2702 19.9813C14.1644 19.9264 14.1075 19.8499 14.0997 19.7519L14.1173 19.7401V19.7166L14.1114 19.6754L14.0879 19.6225L14.1114 19.5754L14.1173 19.4989L14.1467 19.3754V19.3636C14.1408 19.3577 14.1408 19.3519 14.1408 19.346C14.1408 19.3381 14.1428 19.3264 14.1467 19.3107C14.1467 19.3068 14.1467 19.297 14.1467 19.2813C14.1467 19.2656 14.1526 19.2381 14.1644 19.1989L14.1938 19.1872C14.1781 19.1754 14.1702 19.1617 14.1702 19.146V19.1225V19.0989C14.1702 19.0695 14.182 19.046 14.2114 19.0342C14.2232 19.0107 14.2349 18.9872 14.2526 18.9636L14.2349 18.9342L14.2761 18.8754V18.8636C14.2761 18.8166 14.2938 18.7734 14.3291 18.7342L14.3232 18.6695L14.3349 18.6519V18.646C14.3349 18.6401 14.3349 18.6342 14.3349 18.6342C14.3349 18.6166 14.3349 18.6048 14.3467 18.5989V18.5754C14.3585 18.5519 14.384 18.5146 14.4232 18.4636C14.4663 18.4166 14.4977 18.3754 14.5173 18.3401L14.5349 18.3577L14.5761 18.3401L14.5938 18.3283L14.7114 18.2754L14.9938 18.293V18.3166L15.082 18.3342C15.1408 18.3342 15.1761 18.3519 15.1879 18.3872C15.1879 18.3813 15.1938 18.3695 15.1938 18.3636V18.346L15.2702 18.4166L15.3408 18.4342L15.4702 18.3989L15.5173 18.493L15.5761 18.5107ZM15.2291 18.6989L15.2173 18.6695L15.1879 18.6636L15.0761 18.5754L14.9997 18.5636H14.9408L14.9349 18.5519L14.9055 18.5636L14.8761 18.5519H14.7761L14.7879 18.5636L14.7055 18.593L14.6938 18.6107H14.682C14.6389 18.6499 14.6075 18.6813 14.5879 18.7048L14.5644 18.793L14.5467 18.8283L14.5879 18.8754L14.5232 18.9224L14.5291 18.9342C14.5055 18.9872 14.4938 19.0283 14.4938 19.0695L14.4644 19.1107V19.1754L14.4349 19.2107L14.4232 19.2401L14.4173 19.246V19.2989L14.3997 19.3166C14.3997 19.346 14.3997 19.3695 14.3938 19.3872L14.3997 19.4048L14.3702 19.4754L14.3879 19.4989L14.3585 19.5342L14.3879 19.6048L14.3408 19.6519L14.3526 19.7225V19.7342L14.3644 19.7401L14.3879 19.7342C14.3997 19.7224 14.4095 19.7126 14.4173 19.7048V19.6754L14.4644 19.6695L14.4761 19.6401L14.6879 19.4636L14.7114 19.4577L14.735 19.3989C14.7526 19.393 14.7702 19.3813 14.7997 19.3695L14.8232 19.3107H14.8526L14.8408 19.246L14.8938 19.2401C14.8977 19.2323 14.9036 19.2205 14.9114 19.2048C14.9232 19.1891 14.9369 19.1754 14.9526 19.1636L15.1349 18.9166L15.1644 18.8636V18.846L15.1879 18.8107L15.1938 18.7695L15.2291 18.7342V18.6989Z" fill="white"/>
<path d="M19.3882 18.6806C19.3882 18.7041 19.3647 18.7218 19.3235 18.7394C19.3118 18.7512 19.2941 18.7629 19.2647 18.7747C19.2294 18.7865 19.2059 18.7982 19.1941 18.81L19.1176 18.7865C19.0784 18.8139 19.0275 18.8276 18.9647 18.8276L18.9235 18.8159L18.8882 18.8453H18.7882L18.7294 18.8865C18.702 18.8786 18.6765 18.8747 18.6529 18.8747C18.6451 18.8786 18.6274 18.8825 18.6 18.8865C18.5882 18.8865 18.5745 18.8825 18.5588 18.8747L18.5529 19.0159V19.1159V19.2394V19.3806L18.5647 19.4453L18.5588 19.4982L18.6118 19.61C18.6059 19.6159 18.6 19.6276 18.6 19.6335C18.6 19.6512 18.6294 19.6629 18.6824 19.6747L18.6882 19.7159L18.7118 19.7276L18.7588 19.7571L18.7882 19.7806C18.8118 19.7767 18.8294 19.7747 18.8412 19.7747C18.8647 19.7747 18.8824 19.7747 18.9059 19.7865C18.9137 19.7786 18.9333 19.761 18.9647 19.7335C18.9882 19.7139 19.0098 19.7041 19.0294 19.7041H19.0412H19.0529C19.0725 19.6571 19.1118 19.6276 19.1706 19.6159C19.2176 19.6159 19.2588 19.6316 19.2941 19.6629V19.6865C19.2941 19.7688 19.2647 19.8218 19.2059 19.8453C19.1863 19.8963 19.1412 19.9296 19.0706 19.9453L19.0235 19.9865H18.9765L18.8941 20.0041C18.8765 20.01 18.8471 20.0159 18.8118 20.0159C18.7882 20.0159 18.7706 20.01 18.7471 19.9982H18.7L18.5706 19.9276L18.5412 19.9159L18.4647 19.8159L18.4176 19.7688L18.3412 19.5865L18.3118 19.4159L18.3235 19.3688L18.2882 19.3335L18.3059 19.2806L18.2882 19.1982L18.3118 19.1747L18.3235 19.1276L18.3118 19.0865L18.3235 19.0159L18.3059 18.9629L18.3235 18.9394V18.8865L18.2941 18.8747L18.2235 18.8865L18.1588 18.8453H18.1471C18.0765 18.8453 18.0412 18.8061 18.0412 18.7276V18.7159L18 18.6453L18.0647 18.5806L18.1588 18.5923L18.2059 18.5865L18.2765 18.6041H18.3529V18.5335L18.3059 18.4276L18.3529 18.4041L18.3294 18.3453L18.3353 18.2335L18.3059 18.1865C18.2902 18.159 18.2824 18.1355 18.2824 18.1159C18.2824 18.0884 18.2882 18.0669 18.3 18.0512L18.3118 17.9982L18.3412 17.9688C18.4059 17.9571 18.4471 17.9512 18.4706 17.9512C18.549 17.9512 18.5922 17.9865 18.6 18.0571L18.5882 18.0747C18.6039 18.0982 18.6118 18.1178 18.6118 18.1335C18.6118 18.1374 18.6098 18.1453 18.6059 18.1571L18.6 18.1806L18.5941 18.2041L18.6118 18.2512L18.6059 18.2688L18.6118 18.3218L18.5824 18.3629L18.6 18.4335L18.5824 18.5276L18.6118 18.5571L18.5824 18.6276L18.6941 18.6041L18.8941 18.6276L19.0588 18.5982L19.1118 18.6041L19.1294 18.5982H19.2706C19.349 18.5982 19.3882 18.6257 19.3882 18.6806Z" fill="white"/>
<path d="M22.7929 19.4575C22.7929 19.5124 22.7831 19.5477 22.7635 19.5634L22.7459 19.5751L22.7282 19.6281L22.6694 19.6457C22.6517 19.6869 22.6282 19.7163 22.5929 19.7398L22.5576 19.7457L22.5106 19.7986L22.4694 19.8104C22.4517 19.8516 22.4165 19.8751 22.3635 19.881C22.3576 19.8869 22.3459 19.8986 22.3282 19.9222C22.2929 19.9457 22.2557 19.9594 22.2165 19.9634L22.1988 19.9692L22.1753 19.9986H22.0988L22.04 20.0457L21.8929 19.9398L21.8223 19.7928V19.6163L21.8047 19.5751L21.8459 19.2516L21.8635 19.2398C21.8517 19.1986 21.8517 19.1692 21.8517 19.1281C21.8517 19.1084 21.8596 19.0653 21.8753 18.9986L21.8929 18.9104C21.889 18.8986 21.8792 18.883 21.8635 18.8633L21.887 18.7986L21.8929 18.7104L21.8988 18.7045C21.891 18.681 21.8851 18.6555 21.8812 18.6281C21.8812 18.6281 21.887 18.6163 21.887 18.6104C21.8929 18.5986 21.8929 18.5928 21.8929 18.5869C21.887 18.5692 21.8812 18.5457 21.8812 18.5281C21.8812 18.4692 21.9145 18.4418 21.9812 18.4457H22.0223C22.0517 18.4339 22.0694 18.4281 22.0812 18.4281C22.1282 18.4281 22.1596 18.4555 22.1753 18.5104V18.5222C22.187 18.5535 22.1929 18.581 22.1929 18.6045C22.1929 18.6281 22.191 18.6437 22.187 18.6516L22.1576 18.8339L22.187 18.8869C22.187 18.93 22.1714 18.9692 22.14 19.0045L22.1517 19.0457L22.1106 19.1869C22.1027 19.2496 22.0968 19.2947 22.0929 19.3222V19.4163L22.0635 19.4692L22.0694 19.5045L22.0635 19.5869L22.0694 19.6516L22.1282 19.6986L22.1694 19.6869L22.1753 19.6751L22.2047 19.681L22.2517 19.6692L22.2929 19.6281L22.3047 19.6045L22.3341 19.5986L22.34 19.5869L22.3517 19.5692L22.3753 19.5869L22.4106 19.5457L22.4341 19.5516L22.44 19.5222H22.4459L22.4576 19.4928L22.4929 19.481L22.5576 19.4457C22.6125 19.4104 22.6674 19.3928 22.7223 19.3928H22.74C22.7635 19.4084 22.7812 19.43 22.7929 19.4575ZM22.4223 17.5222C22.4223 17.5535 22.4027 17.581 22.3635 17.6045V17.6104C22.3165 17.6692 22.2753 17.6986 22.2459 17.7045L22.187 17.7692L22.1517 17.8163L22.0635 17.8398L22.0341 17.8928L21.9753 17.9222L21.8812 18.0045L21.8223 17.9516L21.8282 17.8575L21.8694 17.7928C21.8694 17.7575 21.8929 17.7339 21.9282 17.7104V17.6928L21.9517 17.6751L21.9576 17.6222L22.0106 17.6104V17.5751L22.0576 17.5692C22.0635 17.5163 22.087 17.4869 22.1165 17.4634L22.1282 17.4516L22.1517 17.4339L22.1812 17.3457C22.34 17.3869 22.4223 17.4457 22.4223 17.5222Z" fill="white"/>
<path d="M26.0639 19.1335L26.0403 19.1983C26.0403 19.2649 26.0364 19.3159 26.0286 19.3512L26.005 19.3865V19.4277L25.9874 19.4512L25.9756 19.5041L25.9344 19.5453L25.9109 19.6335L25.8815 19.6453L25.8697 19.6865L25.8227 19.71L25.7933 19.7747L25.7521 19.7924L25.7462 19.8394L25.6756 19.863C25.6442 19.9061 25.607 19.9335 25.5639 19.9453L25.5462 19.9512C25.5109 19.9983 25.4697 20.0277 25.4109 20.0277C25.3874 20.0433 25.3599 20.0512 25.3286 20.0512L25.2933 20.0747L25.258 20.0865L25.205 20.1218H25.158L25.1109 20.1335L25.0462 20.11L24.8933 20.0983L24.8403 20.0159L24.758 19.9277L24.7756 19.8688L24.7168 19.7453L24.7403 19.6983L24.7286 19.61L24.7403 19.5571V19.4865C24.7403 19.4394 24.7521 19.4041 24.7756 19.3806C24.7795 19.3571 24.7952 19.3179 24.8227 19.263H24.8462L24.8344 19.2394L24.8462 19.1865V19.1277C24.8639 19.11 24.8756 19.0924 24.8756 19.0865L24.8639 19.0394V19.0218C24.8815 18.9865 24.8933 18.9512 24.8933 18.9159L24.9639 18.81C24.9795 18.8022 24.9893 18.7943 24.9933 18.7865V18.7747H25.005L25.058 18.71L25.0639 18.6277L25.1521 18.5983C25.1874 18.5747 25.2109 18.5394 25.2168 18.4865H25.2639C25.2952 18.4708 25.3207 18.463 25.3403 18.463C25.3639 18.463 25.3835 18.4688 25.3992 18.4806H25.4403L25.5344 18.4453L25.5874 18.4924L25.6286 18.5218H25.658L25.7109 18.5453H25.7403C25.7697 18.5806 25.805 18.6159 25.8521 18.6688L25.858 18.6865L25.8815 18.6983L25.958 18.7983L26.0286 18.9688V19.0041L26.0639 19.1335ZM25.8227 19.2218L25.8168 19.2041C25.805 19.1865 25.7933 19.1688 25.7933 19.1512L25.805 19.1335L25.7697 19.063L25.7756 18.9924L25.7639 18.9747C25.7286 18.9512 25.7109 18.9335 25.7109 18.9159C25.6874 18.9041 25.6756 18.8806 25.6756 18.8453L25.658 18.8394L25.6109 18.7688L25.5815 18.7394L25.505 18.71L25.4756 18.7041C25.4599 18.7041 25.4501 18.7002 25.4462 18.6924L25.3697 18.7688L25.3227 18.8688L25.2462 18.91L25.2344 18.9512L25.1992 18.9688L25.1874 19.063L25.1403 19.0865C25.1344 19.1159 25.1286 19.1512 25.1286 19.1806L25.0697 19.2335L25.0874 19.2453C25.0874 19.2747 25.0756 19.2983 25.0521 19.3218C25.0403 19.3414 25.0286 19.3649 25.0168 19.3924V19.4218V19.4394V19.4806L24.9815 19.5806V19.5983V19.6983L24.9697 19.7512L24.9756 19.7983L25.005 19.8453L25.058 19.863L25.0756 19.8688H25.105H25.1992L25.2168 19.8335H25.2286C25.2462 19.8335 25.2521 19.8394 25.2521 19.8453L25.2874 19.8335L25.3168 19.8453L25.3639 19.81L25.3697 19.8041L25.405 19.7983C25.4227 19.7688 25.458 19.7394 25.5227 19.7159L25.5344 19.6983L25.605 19.6453L25.6462 19.5865L25.6992 19.5571L25.705 19.5394L25.7286 19.4983V19.4512L25.7697 19.4159L25.7815 19.3865L25.805 19.3688C25.7933 19.3375 25.7874 19.3159 25.7874 19.3041C25.7874 19.2806 25.7933 19.263 25.8109 19.2335L25.8227 19.2218Z" fill="white"/>
<path d="M30.6983 19.3979C30.6983 19.4175 30.6827 19.443 30.6513 19.4744L30.6101 19.5391L30.5925 19.6097L30.5631 19.6214L30.5513 19.6391C30.516 19.6508 30.4866 19.6861 30.4689 19.7332C30.4415 19.7646 30.414 19.7881 30.3866 19.8038C30.3709 19.8195 30.3591 19.8273 30.3513 19.8273L30.3336 19.8626L30.2983 19.8685L30.2042 19.9214L30.0807 19.9391L30.0454 19.9273L29.9925 19.9391L29.9689 19.9155C29.9376 19.8959 29.914 19.8783 29.8983 19.8626C29.8689 19.8567 29.8513 19.8332 29.8336 19.792C29.7944 19.7449 29.7748 19.7077 29.7748 19.6802V19.6685L29.7454 19.6214L29.7395 19.6155L29.716 19.5508L29.6807 19.4802L29.6925 19.3979L29.6513 19.3508L29.5983 19.0391C29.5925 18.992 29.5866 18.9626 29.5866 18.9332L29.5807 18.9096L29.5631 18.8861L29.5278 18.9332L29.3983 19.0685L29.3513 19.1449L29.3278 19.1979L29.2866 19.2567L29.2572 19.2861V19.3038L29.2101 19.4155L29.1807 19.4508L29.1454 19.4567L29.1101 19.492C29.1101 19.5391 29.0866 19.5704 29.0395 19.5861L29.0336 19.5979C29.0101 19.6489 28.9866 19.6802 28.9631 19.692L28.9278 19.7449C28.8768 19.792 28.8415 19.8214 28.8219 19.8332C28.816 19.8567 28.8042 19.8802 28.7807 19.8979C28.7807 19.9038 28.7689 19.9097 28.7572 19.9214C28.7513 19.9685 28.716 19.9979 28.6572 20.0155L28.616 20.0214C28.5689 20.0214 28.5278 19.992 28.4925 19.9391L28.4395 19.8508L28.4631 19.7626L28.4513 19.7155L28.4572 19.7097L28.4631 19.6567L28.4219 19.5744L28.4513 19.5273L28.4395 19.4802L28.4631 19.4332L28.4748 19.3449L28.4631 19.3332L28.4866 19.2802L28.4748 19.2567V19.1979L28.4866 19.0861C28.4748 19.0626 28.4748 19.0449 28.4748 19.0391V19.0214V19.0097L28.4631 18.9802L28.4748 18.8626V18.8273V18.7626V18.6685L28.5395 18.5567C28.6101 18.5685 28.6611 18.5861 28.6925 18.6097C28.7199 18.6293 28.7336 18.6665 28.7336 18.7214V18.7508L28.7631 18.7979L28.7454 18.8744L28.7631 19.0155L28.7336 19.0861L28.7454 19.1626V19.2273L28.716 19.2685L28.7454 19.3332L28.716 19.3685V19.4096L28.7336 19.4508L28.7042 19.5273L28.6983 19.5626V19.5979L28.716 19.6332L28.7748 19.5685C28.7748 19.5332 28.7866 19.5097 28.8101 19.492C28.816 19.4685 28.8219 19.4508 28.8395 19.4391L28.8278 19.4332L28.8807 19.3861L28.8866 19.3685V19.3391L28.9454 19.292L28.9631 19.2567L28.9925 19.2391L29.1336 19.0744C29.1278 19.092 29.0866 19.1391 29.016 19.2097V19.2155L29.0219 19.192L29.0689 19.1391L29.1042 19.0744V19.0391L29.1572 19.0214L29.1631 18.9744L29.1807 18.9626V18.9391V18.9155L29.2336 18.8626V18.8449C29.2336 18.8391 29.2336 18.8332 29.2336 18.8332C29.2336 18.7861 29.2572 18.7626 29.3042 18.7626C29.3278 18.7155 29.3572 18.692 29.4042 18.6802L29.4219 18.6508L29.4336 18.6449C29.4532 18.6136 29.4846 18.592 29.5278 18.5802L29.5631 18.5391H29.6513L29.6925 18.5861L29.7336 18.6097L29.7395 18.6214L29.7631 18.6273L29.7748 18.7038L29.8336 18.7391L29.8042 18.8214L29.8513 18.9096V19.0097L29.8748 19.1508L29.8866 19.2802L29.916 19.3567L29.9395 19.4508C29.9552 19.4665 29.965 19.4881 29.9689 19.5155L30.0395 19.5332V19.6038L30.0748 19.6449V19.6567H30.0866L30.1042 19.6802L30.116 19.6626C30.1101 19.6626 30.116 19.6626 30.1336 19.6685C30.1611 19.6685 30.1905 19.6449 30.2219 19.5979L30.2631 19.5861L30.2748 19.5626C30.2807 19.5449 30.2983 19.5332 30.316 19.5214H30.3454L30.3572 19.5097L30.3631 19.492L30.3748 19.4802C30.3983 19.4626 30.416 19.4332 30.4219 19.4038L30.4631 19.3567L30.4689 19.3214L30.4925 19.2685L30.5631 19.2391L30.6572 19.2744L30.6925 19.3802C30.6925 19.3802 30.6944 19.3822 30.6983 19.3861V19.3979Z" fill="white"/>
<path d="M34.6173 19.6867L34.5761 19.7397L34.5349 19.8338L34.5055 19.8573L34.482 19.9102L34.4055 19.9161L34.3585 19.9632H34.2879L34.2408 19.9985L34.2055 19.9867L34.1526 19.9985V20.0279L34.0173 20.0161H33.9643L33.9173 20.0397L33.882 20.022C33.9055 20.0181 33.9251 20.0161 33.9408 20.0161C33.9232 20.0161 33.8643 20.022 33.7643 20.0279L33.7526 20.022L33.7232 20.0161L33.6761 20.0397C33.6643 20.0357 33.6389 20.0299 33.5996 20.022C33.5447 20.0181 33.5094 20.0161 33.4937 20.0161H33.4643C33.4447 20.0083 33.4251 20.0044 33.4055 20.0044C33.3879 20.0044 33.3702 20.0102 33.3467 20.0161L33.2996 19.9867L33.2702 19.975C33.2643 19.975 33.2526 19.975 33.229 19.9632C33.1408 19.9573 33.0938 19.8808 33.0938 19.7397V19.7102L33.1643 19.6573L33.2526 19.6279L33.3173 19.6573H33.3702V19.6691C33.3938 19.6808 33.4114 19.7004 33.4232 19.7279L33.4526 19.7338V19.7808L33.4996 19.7926L33.5114 19.7985L33.982 19.7691L34.0938 19.7514H34.1055L34.1114 19.7338L34.1643 19.7279L34.1702 19.7161C34.2232 19.7102 34.2702 19.6926 34.3114 19.6691L34.3173 19.6514C34.3114 19.6514 34.3055 19.6397 34.2996 19.6279L34.282 19.6338L34.2349 19.5985H34.2055L34.1879 19.5691L34.1938 19.5514L34.1526 19.5632L34.129 19.5338H34.0938C34.0585 19.5338 34.029 19.5279 33.9937 19.5161H33.9643L33.9349 19.5044L33.8879 19.522L33.8585 19.4867H33.8467L33.7938 19.4455L33.682 19.4044L33.6467 19.375L33.5055 19.3514L33.4937 19.322L33.3879 19.2573L33.3349 19.1397L33.2938 19.075L33.2761 18.8867L33.2938 18.8632C33.2938 18.8102 33.3173 18.7632 33.3467 18.722C33.3879 18.6985 33.4055 18.675 33.4055 18.6338L33.4585 18.6279C33.4702 18.6044 33.4879 18.5867 33.5173 18.5691L33.5702 18.5279L33.8055 18.4397L33.8408 18.4279L33.9173 18.4161L34.0349 18.3867L34.2643 18.4044L34.2702 18.4161C34.2938 18.4279 34.3173 18.4455 34.3408 18.4808V18.4985L34.4055 18.5338L34.3761 18.622L34.3702 18.6514C34.3585 18.7142 34.3251 18.7455 34.2702 18.7455C34.229 18.7455 34.1937 18.722 34.1702 18.6808V18.675H34.129L34.0761 18.6867L34.029 18.6514L33.9996 18.6691C33.9683 18.6691 33.9408 18.6789 33.9173 18.6985C33.8781 18.6985 33.8408 18.7142 33.8055 18.7455H33.7585L33.729 18.7632L33.6761 18.7808H33.6702L33.6467 18.7985L33.6173 18.8279L33.6055 18.8338L33.5702 18.8808L33.529 18.9044C33.5232 18.9338 33.5173 18.9632 33.5114 18.9867C33.5173 19.022 33.5232 19.0455 33.529 19.0514C33.533 19.0632 33.5487 19.075 33.5761 19.0867V19.1044L33.6232 19.1279C33.6624 19.1436 33.6918 19.1612 33.7114 19.1808H33.7879L33.829 19.222L33.9114 19.2279L33.9467 19.2514L34.0938 19.2926L34.1055 19.3338L34.1232 19.3044C34.1545 19.3044 34.1977 19.32 34.2526 19.3514L34.3173 19.3632L34.3232 19.3867H34.382L34.482 19.4455C34.4938 19.4769 34.5212 19.5063 34.5643 19.5338L34.6055 19.5573L34.5938 19.5985C34.6094 19.6259 34.6173 19.6514 34.6173 19.675V19.6867Z" fill="white"/>
<path d="M38.0643 9.50416C39.0467 9.50416 39.8408 8.71004 39.8408 7.72181C39.8408 6.73945 39.0467 5.93945 38.0643 5.93945C37.0761 5.93945 36.2761 6.73945 36.2761 7.72181C36.2761 8.71004 37.0761 9.50416 38.0643 9.50416ZM39.2643 10.51C39.2643 11.4924 40.0643 12.2924 41.0467 12.2924C42.0349 12.2924 42.829 11.4924 42.829 10.51C42.829 9.52769 42.0349 8.72769 41.0467 8.72769C40.0643 8.72769 39.2643 9.52769 39.2643 10.51ZM43.8173 11.6336C42.8349 11.6336 42.0349 12.4277 42.0349 13.4159C42.0349 14.3983 42.8349 15.1983 43.8173 15.1983C44.8055 15.1983 45.5996 14.3983 45.5996 13.4159C45.5996 12.4277 44.8055 11.6336 43.8173 11.6336ZM40.9114 14.3395C39.929 14.3395 39.1349 15.1336 39.1349 16.1218C39.1349 17.1042 39.929 17.9042 40.9114 17.9042C41.8996 17.9042 42.6937 17.1042 42.6937 16.1218C42.6937 15.1336 41.8996 14.3395 40.9114 14.3395ZM37.8761 17.1747C36.8937 17.1747 36.0996 17.9747 36.0996 18.963C36.0996 19.9453 36.8937 20.7395 37.8761 20.7395C38.8643 20.7395 39.6584 19.9453 39.6584 18.963C39.6584 17.9747 38.8643 17.1747 37.8761 17.1747Z" fill="white"/>
<path d="M45.453 9.50416C46.4353 9.50416 47.2353 8.71004 47.2353 7.72181C47.2353 6.73945 46.4353 5.93945 45.453 5.93945C44.4706 5.93945 43.6706 6.73945 43.6706 7.72181C43.6706 8.71004 44.4706 9.50416 45.453 9.50416ZM46.6589 10.51C46.6589 11.4924 47.453 12.2924 48.4412 12.2924C49.4236 12.2924 50.2236 11.4924 50.2236 10.51C50.2236 9.52769 49.4236 8.72769 48.4412 8.72769C47.453 8.72769 46.6589 9.52769 46.6589 10.51ZM51.2118 11.6336C50.2295 11.6336 49.4295 12.4277 49.4295 13.4159C49.4295 14.3983 50.2295 15.1983 51.2118 15.1983C52.1942 15.1983 52.9942 14.3983 52.9942 13.4159C52.9942 12.4277 52.1942 11.6336 51.2118 11.6336ZM48.3059 14.3395C47.3236 14.3395 46.5236 15.1336 46.5236 16.1218C46.5236 17.1042 47.3236 17.9042 48.3059 17.9042C49.2942 17.9042 50.0883 17.1042 50.0883 16.1218C50.0883 15.1336 49.2942 14.3395 48.3059 14.3395ZM45.2706 17.1747C44.2883 17.1747 43.4883 17.9747 43.4883 18.963C43.4883 19.9453 44.2883 20.7395 45.2706 20.7395C46.2589 20.7395 47.053 19.9453 47.053 18.963C47.053 17.9747 46.2589 17.1747 45.2706 17.1747Z" fill="white"/>
<path d="M52.7108 9.50416C53.6931 9.50416 54.4931 8.71004 54.4931 7.72181C54.4931 6.73945 53.6931 5.93945 52.7108 5.93945C51.7284 5.93945 50.9284 6.73945 50.9284 7.72181C50.9284 8.71004 51.7284 9.50416 52.7108 9.50416ZM53.9167 10.51C53.9167 11.4924 54.7167 12.2924 55.699 12.2924C56.6814 12.2924 57.4814 11.4924 57.4814 10.51C57.4814 9.52769 56.6814 8.72769 55.699 8.72769C54.7167 8.72769 53.9167 9.52769 53.9167 10.51ZM58.4696 11.6336C57.4872 11.6336 56.6931 12.4277 56.6931 13.4159C56.6931 14.3983 57.4872 15.1983 58.4696 15.1983C59.4578 15.1983 60.252 14.3983 60.252 13.4159C60.252 12.4277 59.4578 11.6336 58.4696 11.6336ZM55.5696 14.3395C54.5814 14.3395 53.7872 15.1336 53.7872 16.1218C53.7872 17.1042 54.5814 17.9042 55.5696 17.9042C56.552 17.9042 57.352 17.1042 57.352 16.1218C57.352 15.1336 56.552 14.3395 55.5696 14.3395ZM52.5284 17.1747C51.5461 17.1747 50.752 17.9747 50.752 18.963C50.752 19.9453 51.5461 20.7395 52.5284 20.7395C53.5167 20.7395 54.3108 19.9453 54.3108 18.963C54.3108 17.9747 53.5167 17.1747 52.5284 17.1747Z" fill="white"/>
<path d="M4.99325 4.02677C5.05208 4.58559 4.97561 5.23265 4.5756 5.27383C4.1756 5.315 3.80502 4.89736 3.74031 4.33265C3.68149 3.77383 3.95796 3.28559 4.35796 3.23853C4.75208 3.19736 4.93443 3.46206 4.99325 4.02677Z" fill="white"/>
<path d="M4.66346 7.45671C5.00463 7.11554 5.98111 8.58024 5.9164 9.56848C5.85169 10.5626 5.18699 12.3391 5.18699 12.8038C5.18699 13.2685 5.18699 17.092 3.80463 17.1626C3.80463 17.1626 3.53993 16.5038 3.67522 15.7097C3.80463 14.9155 4.33405 12.4097 4.33405 12.0802C4.33405 11.7508 4.13405 7.98612 4.66346 7.45671Z" fill="white"/>
<path d="M11.3293 11.3512C11.7588 11.0395 13.6411 10.7571 13.7058 9.89828C13.7705 9.03946 12.9823 8.84534 12.3176 9.17475C11.6588 9.50416 9.21758 11.1571 8.42347 12.1453C7.63523 13.1336 6.5117 15.0512 6.64111 15.9042C6.77641 16.763 8.29406 17.2277 9.547 17.0277C10.7999 16.8336 16.8764 14.3865 17.7294 13.5983C18.5882 12.8042 18.2588 12.2748 17.4705 12.41C16.6764 12.5395 15.2235 13.663 12.9117 14.5865C10.6058 15.51 8.68817 15.9042 8.35876 15.1806C8.02935 14.4571 9.68229 12.5395 11.3293 11.3512Z" fill="white"/>
<path d="M25.452 8.11582C23.8049 8.25111 21.7579 10.557 20.6343 11.8805C19.5108 13.1982 18.9226 15.4452 19.1167 16.3688C19.3167 17.2923 20.3696 17.0276 20.8343 16.6335C21.2932 16.2393 23.5402 15.6452 24.9932 14.7864C26.4461 13.9276 27.5637 12.2099 27.7637 10.557C27.9637 8.90994 26.7696 8.00994 25.452 8.11582ZM26.4461 11.7511C25.9814 12.4746 24.2637 13.9923 23.0755 14.6511C21.8873 15.3099 20.6343 15.7099 20.3049 15.2452C19.9637 14.7629 21.4932 12.6688 22.352 11.8805C23.2108 11.0864 25.1226 9.23935 25.9167 9.30405C26.7049 9.36876 26.9049 11.0217 26.4461 11.7511Z" fill="white"/>
<path d="M28.7516 7.32812C29.481 7.32812 29.7398 8.05165 29.7398 8.71636C29.7398 9.3693 29.8104 11.3517 29.8104 11.3517C29.8104 11.3517 30.6692 11.0869 30.8633 10.6281C31.0633 10.1634 31.9222 9.23989 32.6457 9.30459C33.3751 9.3693 33.8986 10.4281 33.9692 11.4222C34.0339 12.4105 33.5692 15.9046 36.8045 15.6458C36.8045 15.6458 37.3986 16.5046 36.1457 16.8987C34.8927 17.2928 32.9104 16.5634 32.9104 15.1164C32.9104 13.6634 32.9104 11.2869 32.1869 11.4222C31.4574 11.5517 29.7398 13.7928 29.6104 14.9164C29.481 16.0399 29.8104 17.2928 29.2163 17.2928C28.6222 17.2928 28.028 16.1693 28.0927 15.3811C28.1574 14.5869 28.5516 13.334 28.5516 12.1458C28.5516 10.9575 28.0927 9.17518 28.1574 8.58107C28.228 7.98695 28.1574 7.32812 28.7516 7.32812Z" fill="white"/>
<path d="M4.62261 19.4159L4.55202 19.4865V19.5042C4.54418 19.5512 4.52261 19.5865 4.48732 19.6101C4.42849 19.7199 4.3481 19.8003 4.24614 19.8512L4.18732 19.8983L4.14614 19.9042L4.08732 19.9454L4.04614 19.9512L3.95202 20.0101L3.8932 19.9983L3.82849 20.0395L3.77555 20.0159L3.75202 20.0395L3.68143 20.0277L3.61673 20.0395L3.58732 20.0159L3.51673 19.9983L3.41085 19.9218L3.35202 19.8512C3.31673 19.8042 3.29908 19.765 3.29908 19.7336V19.7218L3.26379 19.6689V19.6218C3.25202 19.5924 3.25202 19.563 3.25202 19.5395V19.5159L3.23438 19.4512L3.25202 19.4101L3.23438 19.3807L3.28143 19.3101L3.26967 19.2512L3.29908 19.1571L3.31085 19.1336L3.32849 19.0454L3.31673 19.0336L3.36379 18.9865L3.36967 18.9512L3.39908 18.863L3.44614 18.763L3.51085 18.7042L3.52849 18.6748L3.55202 18.6336L3.5579 18.5983L3.61673 18.5277C3.62849 18.5218 3.64614 18.5159 3.66379 18.5101C3.67555 18.463 3.73634 18.4375 3.84614 18.4336C3.94026 18.4512 3.99908 18.4748 4.02849 18.5101C4.0579 18.5101 4.07555 18.5218 4.0932 18.5395L4.16967 18.5454L4.22261 18.6101C4.22849 18.6336 4.24026 18.6571 4.24614 18.6807L4.26967 18.7101L4.26379 18.763C4.26379 18.7826 4.26379 18.8101 4.26379 18.8454L4.28732 18.863V18.9159L4.29908 19.0277C4.2481 19.0787 4.18928 19.1081 4.12261 19.1159C4.08732 19.0512 4.04614 19.0042 3.9932 18.9748V18.8512L3.96967 18.8101V18.7807L3.93438 18.7395L3.91673 18.7277L3.88143 18.7395H3.83438C3.80496 18.7454 3.76967 18.7689 3.74026 18.8042C3.71085 18.8454 3.68732 18.8865 3.65202 18.9336V18.9689L3.62849 18.9865V19.0454L3.58143 19.1042L3.52261 19.263L3.52849 19.3042L3.49908 19.3689L3.51085 19.4512L3.48732 19.463L3.48143 19.563V19.5807L3.52849 19.6277L3.54614 19.6983L3.59908 19.7159V19.7454L3.66379 19.7571L3.71085 19.7689C3.72849 19.7571 3.74614 19.7512 3.76967 19.7512H3.79908C3.82849 19.7395 3.85202 19.7395 3.87555 19.7395C3.89516 19.7316 3.91673 19.7238 3.94026 19.7159C3.97163 19.6767 4.01281 19.6571 4.06379 19.6571H4.08732C4.09908 19.6571 4.10692 19.6512 4.11085 19.6395C4.1383 19.5963 4.18143 19.5689 4.24026 19.5571C4.30692 19.4944 4.34614 19.4454 4.3579 19.4101C4.3932 19.3924 4.41085 19.363 4.42261 19.3218L4.44614 19.3042L4.4579 19.2218C4.56771 19.2375 4.62261 19.2944 4.62261 19.3924V19.4159Z" fill="white"/>
<path d="M8.48775 18.6334L8.45834 18.751L8.32305 18.7687L8.25246 18.8157L8.2054 18.7981L8.15246 18.8275L8.09952 18.8451L8.06422 18.8687L8.05834 18.8863L7.98187 18.9216L7.93481 18.9863H7.9054C7.87011 19.0294 7.84265 19.0569 7.82305 19.0687L7.77599 19.151L7.75246 19.1569C7.74854 19.1765 7.74069 19.204 7.72893 19.2392L7.68187 19.2628L7.65834 19.304L7.62893 19.3451L7.61716 19.3981L7.59364 19.4098V19.4628L7.58187 19.4745C7.58775 19.4863 7.59363 19.4981 7.6054 19.5157L7.55246 19.5392L7.54069 19.5863L7.51128 19.6451L7.52893 19.6922L7.48187 19.7569C7.48579 19.7804 7.48775 19.7981 7.48775 19.8098V19.8216C7.48775 19.8294 7.48775 19.8373 7.48775 19.8451L7.49364 19.8745L7.55246 19.9392L7.51128 20.0216L7.46422 20.0569L7.36422 20.1098L7.22893 20.0569V19.9687L7.21128 19.9392L7.22305 19.8804C7.21716 19.8451 7.21716 19.8157 7.21716 19.7922C7.21716 19.7843 7.21716 19.7765 7.21716 19.7687V19.7392V19.704C7.19952 19.6863 7.18775 19.6687 7.18775 19.6451C7.18775 19.6275 7.19952 19.604 7.21716 19.5804C7.21716 19.5687 7.2152 19.5314 7.21128 19.4687L7.21716 19.4569L7.21128 19.4098L7.21716 19.3687L7.21128 19.3451L7.21716 19.2569L7.19952 19.2216L7.21128 19.1804L7.19952 19.1334C7.19952 19.1216 7.19952 19.104 7.19952 19.0745C7.19952 19.0392 7.1956 19.0157 7.18775 19.004L7.19952 18.9804L7.18775 18.9157L7.15246 18.8687L7.17011 18.8098L7.15834 18.7863L7.14069 18.6981V18.6745C7.13481 18.6569 7.12305 18.6392 7.12305 18.6157C7.12305 18.5687 7.17795 18.5275 7.28775 18.4922L7.37599 18.5098L7.39363 18.5804L7.43481 18.6275L7.41716 18.7275C7.42893 18.7745 7.43481 18.8275 7.44658 18.8863L7.45834 18.9451C7.45834 18.9491 7.4603 18.9628 7.46422 18.9863C7.46422 19.002 7.45834 19.0177 7.44658 19.0334L7.45834 19.104L7.44658 19.1863L7.43481 19.2216L7.44658 19.2392L7.45246 19.2745C7.47011 19.2569 7.47599 19.2392 7.48187 19.2157L7.49364 19.1628C7.50148 19.151 7.51128 19.1392 7.52305 19.1275L7.54069 19.0745L7.59364 19.0451L7.59952 19.004L7.64069 18.9628L7.67011 18.904C7.69952 18.8687 7.72893 18.851 7.75834 18.8392L7.76422 18.8275L7.79952 18.7804L7.83481 18.7687L7.84658 18.7628L7.85834 18.7392L7.89952 18.7157L7.92305 18.6922H7.94658L7.97599 18.6804L7.98775 18.6569L8.02893 18.6334L8.09364 18.5981L8.18187 18.5687C8.21716 18.5608 8.23481 18.5569 8.23481 18.5569V18.5628C8.23481 18.5628 8.23481 18.5647 8.23481 18.5687C8.24658 18.5687 8.26226 18.5628 8.28187 18.551C8.29363 18.5392 8.31128 18.5392 8.32893 18.5392C8.34069 18.5392 8.35834 18.5412 8.38187 18.5451C8.44658 18.5451 8.48187 18.5745 8.48775 18.6334Z" fill="white"/>
<path d="M11.7293 19.687C11.7293 19.7184 11.7077 19.7557 11.6646 19.7988C11.6489 19.838 11.6293 19.8694 11.6058 19.8929L11.5881 19.8988L11.5469 19.9635L11.4764 19.9753L11.4116 20.0223L11.3764 20.087H11.3352C11.3077 20.0988 11.2862 20.1047 11.2705 20.1047L11.2469 20.1341H11.2117C11.1822 20.1341 11.1528 20.1576 11.1234 20.1929L11.0705 20.1517H11.0293C10.9979 20.1517 10.9705 20.1459 10.9469 20.1341H10.8822L10.8587 20.1165C10.7646 20.1008 10.7058 20.0655 10.6822 20.0106V19.9988L10.6352 19.9753L10.6175 19.9165L10.5764 19.887V19.8341L10.5293 19.6753V19.5459L10.5528 19.487V19.4106L10.5705 19.3517L10.5646 19.3282L10.5881 19.287L10.5822 19.2929C10.5822 19.2694 10.5881 19.2459 10.5999 19.2223V19.2047L10.5881 19.1165C10.5881 19.0772 10.6077 19.04 10.6469 19.0047C10.6469 19.0047 10.6528 18.9929 10.6528 18.987C10.6489 18.9753 10.643 18.9557 10.6352 18.9282C10.6273 18.8968 10.6234 18.8753 10.6234 18.8635C10.6234 18.8321 10.6313 18.8008 10.6469 18.7694C10.6646 18.7988 10.694 18.8165 10.7293 18.8165H10.7411C10.7469 18.8047 10.7528 18.7929 10.7705 18.7812C10.7901 18.7223 10.8175 18.6714 10.8528 18.6282L10.8646 18.6165C10.8646 18.6047 10.8724 18.5753 10.8881 18.5282H10.9175L10.9234 18.5106L10.9587 18.5047C10.9646 18.487 10.9764 18.4753 10.9764 18.4694C10.9803 18.4655 11.0077 18.4517 11.0587 18.4282C11.0646 18.4047 11.0822 18.3929 11.0999 18.3753C11.1116 18.3714 11.1234 18.3674 11.1352 18.3635L11.1528 18.34C11.2175 18.3223 11.2587 18.3047 11.2764 18.3047C11.294 18.3047 11.3117 18.3106 11.3293 18.3223H11.3469L11.3764 18.3341C11.3999 18.3576 11.4352 18.3753 11.4646 18.387L11.5234 18.4341V18.4517C11.5783 18.4949 11.6058 18.5557 11.6058 18.6341L11.5999 18.6753L11.6058 18.7929L11.5764 18.8165L11.5411 18.9106L11.4705 18.987L11.4646 19.0459C11.3901 19.1008 11.3175 19.1459 11.2469 19.1812C11.2273 19.2125 11.194 19.2282 11.1469 19.2282H11.1352L11.0705 19.2753H11.0116L10.9234 19.3106L10.8587 19.2753H10.8469C10.8469 19.2988 10.8411 19.3282 10.8352 19.3635L10.8058 19.387V19.4341L10.7822 19.4929C10.7862 19.5517 10.7881 19.589 10.7881 19.6047L10.7764 19.6165C10.7764 19.6517 10.7764 19.6753 10.7705 19.687C10.7705 19.691 10.7705 19.6949 10.7705 19.6988V19.7106C10.7705 19.7282 10.7822 19.7459 10.7999 19.7576C10.8077 19.789 10.8195 19.8067 10.8352 19.8106L10.8587 19.8341L10.9411 19.8576V19.8694L10.9705 19.8753H11.094L11.1646 19.8635L11.2058 19.84L11.2234 19.8282L11.2646 19.7753H11.2764L11.3705 19.7459C11.3783 19.7302 11.394 19.7165 11.4175 19.7047L11.4293 19.6812C11.4764 19.6753 11.5058 19.6517 11.5116 19.6106C11.5469 19.5753 11.5881 19.5576 11.6469 19.5576H11.6587C11.7058 19.6106 11.7293 19.6576 11.7293 19.687ZM11.3646 18.64C11.3646 18.6341 11.3646 18.6165 11.3587 18.5988L11.3411 18.5929L11.3293 18.5988H11.3175C11.3097 18.5988 11.3038 18.5988 11.2999 18.5988C11.2999 18.5988 11.296 18.5988 11.2881 18.5988H11.2764L11.2411 18.6223L11.2117 18.6282L11.194 18.6341L11.1293 18.7106L11.0881 18.74L11.0352 18.8459L10.9999 18.8635C10.994 18.9047 10.9764 18.94 10.9469 18.9694L10.9352 18.9988C10.9587 18.9792 10.9881 18.9694 11.0234 18.9694L11.0469 18.9635L11.0587 18.9282L11.1117 18.9341L11.1411 18.887H11.1646L11.2058 18.9047L11.2234 18.8459H11.2469V18.8106L11.294 18.7988L11.3058 18.787L11.3117 18.7517L11.3587 18.6812C11.3626 18.6733 11.3646 18.6596 11.3646 18.64Z" fill="white"/>
<path d="M15.5761 18.5107L15.5349 18.5577L15.5644 18.646L15.5173 18.7048L15.4997 18.7813L15.4879 18.7989L15.4938 18.8166C15.4938 18.8519 15.4879 18.8754 15.4702 18.893L15.4644 18.8989V18.9166C15.4722 18.9323 15.4761 18.9479 15.4761 18.9636C15.4761 18.9754 15.4761 18.9872 15.4702 18.9872L15.4761 19.0048L15.4585 19.046L15.4702 19.0872L15.4408 19.1166L15.4526 19.1695L15.4761 19.193L15.4408 19.2225V19.2813L15.4173 19.3401L15.4349 19.3989L15.4114 19.4283L15.4467 19.4519L15.3997 19.5401L15.3938 19.546L15.4291 19.5519L15.4055 19.6401V19.6519C15.4055 19.6695 15.4055 19.6813 15.3997 19.693L15.4055 19.7048L15.4644 19.7107L15.5114 19.7872L15.482 19.8401L15.5232 19.8342C15.5389 19.8656 15.5487 19.8911 15.5526 19.9107L15.4938 19.9636C15.482 19.9813 15.4526 19.9989 15.4232 20.0166L15.3585 20.0519L15.3467 20.0342L15.3055 20.0519L15.1938 19.9224V19.8577C15.1781 19.8107 15.1702 19.7656 15.1702 19.7225V19.7048L15.1526 19.4872L15.182 19.3342L15.1585 19.246L15.0938 19.3519L15.0644 19.446L15.0349 19.4577L14.982 19.5401L14.8938 19.6225L14.8644 19.6695L14.7879 19.7401L14.7702 19.7872L14.6526 19.8636L14.5291 19.9989L14.4585 20.0166L14.4114 20.0519C14.3487 20.0479 14.3016 20.0244 14.2702 19.9813C14.1644 19.9264 14.1075 19.8499 14.0997 19.7519L14.1173 19.7401V19.7166L14.1114 19.6754L14.0879 19.6225L14.1114 19.5754L14.1173 19.4989L14.1467 19.3754V19.3636C14.1408 19.3577 14.1408 19.3519 14.1408 19.346C14.1408 19.3381 14.1428 19.3264 14.1467 19.3107C14.1467 19.3068 14.1467 19.297 14.1467 19.2813C14.1467 19.2656 14.1526 19.2381 14.1644 19.1989L14.1938 19.1872C14.1781 19.1754 14.1702 19.1617 14.1702 19.146V19.1225V19.0989C14.1702 19.0695 14.182 19.046 14.2114 19.0342C14.2232 19.0107 14.2349 18.9872 14.2526 18.9636L14.2349 18.9342L14.2761 18.8754V18.8636C14.2761 18.8166 14.2938 18.7734 14.3291 18.7342L14.3232 18.6695L14.3349 18.6519V18.646C14.3349 18.6401 14.3349 18.6342 14.3349 18.6342C14.3349 18.6166 14.3349 18.6048 14.3467 18.5989V18.5754C14.3585 18.5519 14.384 18.5146 14.4232 18.4636C14.4663 18.4166 14.4977 18.3754 14.5173 18.3401L14.5349 18.3577L14.5761 18.3401L14.5938 18.3283L14.7114 18.2754L14.9938 18.293V18.3166L15.082 18.3342C15.1408 18.3342 15.1761 18.3519 15.1879 18.3872C15.1879 18.3813 15.1938 18.3695 15.1938 18.3636V18.346L15.2702 18.4166L15.3408 18.4342L15.4702 18.3989L15.5173 18.493L15.5761 18.5107ZM15.2291 18.6989L15.2173 18.6695L15.1879 18.6636L15.0761 18.5754L14.9997 18.5636H14.9408L14.9349 18.5519L14.9055 18.5636L14.8761 18.5519H14.7761L14.7879 18.5636L14.7055 18.593L14.6938 18.6107H14.682C14.6389 18.6499 14.6075 18.6813 14.5879 18.7048L14.5644 18.793L14.5467 18.8283L14.5879 18.8754L14.5232 18.9224L14.5291 18.9342C14.5055 18.9872 14.4938 19.0283 14.4938 19.0695L14.4644 19.1107V19.1754L14.4349 19.2107L14.4232 19.2401L14.4173 19.246V19.2989L14.3997 19.3166C14.3997 19.346 14.3997 19.3695 14.3938 19.3872L14.3997 19.4048L14.3702 19.4754L14.3879 19.4989L14.3585 19.5342L14.3879 19.6048L14.3408 19.6519L14.3526 19.7225V19.7342L14.3644 19.7401L14.3879 19.7342C14.3997 19.7224 14.4095 19.7126 14.4173 19.7048V19.6754L14.4644 19.6695L14.4761 19.6401L14.6879 19.4636L14.7114 19.4577L14.735 19.3989C14.7526 19.393 14.7702 19.3813 14.7997 19.3695L14.8232 19.3107H14.8526L14.8408 19.246L14.8938 19.2401C14.8977 19.2323 14.9036 19.2205 14.9114 19.2048C14.9232 19.1891 14.9369 19.1754 14.9526 19.1636L15.1349 18.9166L15.1644 18.8636V18.846L15.1879 18.8107L15.1938 18.7695L15.2291 18.7342V18.6989Z" fill="white"/>
<path d="M19.3882 18.6806C19.3882 18.7041 19.3647 18.7218 19.3235 18.7394C19.3118 18.7512 19.2941 18.7629 19.2647 18.7747C19.2294 18.7865 19.2059 18.7982 19.1941 18.81L19.1176 18.7865C19.0784 18.8139 19.0275 18.8276 18.9647 18.8276L18.9235 18.8159L18.8882 18.8453H18.7882L18.7294 18.8865C18.702 18.8786 18.6765 18.8747 18.6529 18.8747C18.6451 18.8786 18.6274 18.8825 18.6 18.8865C18.5882 18.8865 18.5745 18.8825 18.5588 18.8747L18.5529 19.0159V19.1159V19.2394V19.3806L18.5647 19.4453L18.5588 19.4982L18.6118 19.61C18.6059 19.6159 18.6 19.6276 18.6 19.6335C18.6 19.6512 18.6294 19.6629 18.6824 19.6747L18.6882 19.7159L18.7118 19.7276L18.7588 19.7571L18.7882 19.7806C18.8118 19.7767 18.8294 19.7747 18.8412 19.7747C18.8647 19.7747 18.8824 19.7747 18.9059 19.7865C18.9137 19.7786 18.9333 19.761 18.9647 19.7335C18.9882 19.7139 19.0098 19.7041 19.0294 19.7041H19.0412H19.0529C19.0725 19.6571 19.1118 19.6276 19.1706 19.6159C19.2176 19.6159 19.2588 19.6316 19.2941 19.6629V19.6865C19.2941 19.7688 19.2647 19.8218 19.2059 19.8453C19.1863 19.8963 19.1412 19.9296 19.0706 19.9453L19.0235 19.9865H18.9765L18.8941 20.0041C18.8765 20.01 18.8471 20.0159 18.8118 20.0159C18.7882 20.0159 18.7706 20.01 18.7471 19.9982H18.7L18.5706 19.9276L18.5412 19.9159L18.4647 19.8159L18.4176 19.7688L18.3412 19.5865L18.3118 19.4159L18.3235 19.3688L18.2882 19.3335L18.3059 19.2806L18.2882 19.1982L18.3118 19.1747L18.3235 19.1276L18.3118 19.0865L18.3235 19.0159L18.3059 18.9629L18.3235 18.9394V18.8865L18.2941 18.8747L18.2235 18.8865L18.1588 18.8453H18.1471C18.0765 18.8453 18.0412 18.8061 18.0412 18.7276V18.7159L18 18.6453L18.0647 18.5806L18.1588 18.5923L18.2059 18.5865L18.2765 18.6041H18.3529V18.5335L18.3059 18.4276L18.3529 18.4041L18.3294 18.3453L18.3353 18.2335L18.3059 18.1865C18.2902 18.159 18.2824 18.1355 18.2824 18.1159C18.2824 18.0884 18.2882 18.0669 18.3 18.0512L18.3118 17.9982L18.3412 17.9688C18.4059 17.9571 18.4471 17.9512 18.4706 17.9512C18.549 17.9512 18.5922 17.9865 18.6 18.0571L18.5882 18.0747C18.6039 18.0982 18.6118 18.1178 18.6118 18.1335C18.6118 18.1374 18.6098 18.1453 18.6059 18.1571L18.6 18.1806L18.5941 18.2041L18.6118 18.2512L18.6059 18.2688L18.6118 18.3218L18.5824 18.3629L18.6 18.4335L18.5824 18.5276L18.6118 18.5571L18.5824 18.6276L18.6941 18.6041L18.8941 18.6276L19.0588 18.5982L19.1118 18.6041L19.1294 18.5982H19.2706C19.349 18.5982 19.3882 18.6257 19.3882 18.6806Z" fill="white"/>
<path d="M22.7929 19.4575C22.7929 19.5124 22.7831 19.5477 22.7635 19.5634L22.7459 19.5751L22.7282 19.6281L22.6694 19.6457C22.6517 19.6869 22.6282 19.7163 22.5929 19.7398L22.5576 19.7457L22.5106 19.7986L22.4694 19.8104C22.4517 19.8516 22.4165 19.8751 22.3635 19.881C22.3576 19.8869 22.3459 19.8986 22.3282 19.9222C22.2929 19.9457 22.2557 19.9594 22.2165 19.9634L22.1988 19.9692L22.1753 19.9986H22.0988L22.04 20.0457L21.8929 19.9398L21.8223 19.7928V19.6163L21.8047 19.5751L21.8459 19.2516L21.8635 19.2398C21.8517 19.1986 21.8517 19.1692 21.8517 19.1281C21.8517 19.1084 21.8596 19.0653 21.8753 18.9986L21.8929 18.9104C21.889 18.8986 21.8792 18.883 21.8635 18.8633L21.887 18.7986L21.8929 18.7104L21.8988 18.7045C21.891 18.681 21.8851 18.6555 21.8812 18.6281C21.8812 18.6281 21.887 18.6163 21.887 18.6104C21.8929 18.5986 21.8929 18.5928 21.8929 18.5869C21.887 18.5692 21.8812 18.5457 21.8812 18.5281C21.8812 18.4692 21.9145 18.4418 21.9812 18.4457H22.0223C22.0517 18.4339 22.0694 18.4281 22.0812 18.4281C22.1282 18.4281 22.1596 18.4555 22.1753 18.5104V18.5222C22.187 18.5535 22.1929 18.581 22.1929 18.6045C22.1929 18.6281 22.191 18.6437 22.187 18.6516L22.1576 18.8339L22.187 18.8869C22.187 18.93 22.1714 18.9692 22.14 19.0045L22.1517 19.0457L22.1106 19.1869C22.1027 19.2496 22.0968 19.2947 22.0929 19.3222V19.4163L22.0635 19.4692L22.0694 19.5045L22.0635 19.5869L22.0694 19.6516L22.1282 19.6986L22.1694 19.6869L22.1753 19.6751L22.2047 19.681L22.2517 19.6692L22.2929 19.6281L22.3047 19.6045L22.3341 19.5986L22.34 19.5869L22.3517 19.5692L22.3753 19.5869L22.4106 19.5457L22.4341 19.5516L22.44 19.5222H22.4459L22.4576 19.4928L22.4929 19.481L22.5576 19.4457C22.6125 19.4104 22.6674 19.3928 22.7223 19.3928H22.74C22.7635 19.4084 22.7812 19.43 22.7929 19.4575ZM22.4223 17.5222C22.4223 17.5535 22.4027 17.581 22.3635 17.6045V17.6104C22.3165 17.6692 22.2753 17.6986 22.2459 17.7045L22.187 17.7692L22.1517 17.8163L22.0635 17.8398L22.0341 17.8928L21.9753 17.9222L21.8812 18.0045L21.8223 17.9516L21.8282 17.8575L21.8694 17.7928C21.8694 17.7575 21.8929 17.7339 21.9282 17.7104V17.6928L21.9517 17.6751L21.9576 17.6222L22.0106 17.6104V17.5751L22.0576 17.5692C22.0635 17.5163 22.087 17.4869 22.1165 17.4634L22.1282 17.4516L22.1517 17.4339L22.1812 17.3457C22.34 17.3869 22.4223 17.4457 22.4223 17.5222Z" fill="white"/>
<path d="M26.0639 19.1335L26.0403 19.1983C26.0403 19.2649 26.0364 19.3159 26.0286 19.3512L26.005 19.3865V19.4277L25.9874 19.4512L25.9756 19.5041L25.9344 19.5453L25.9109 19.6335L25.8815 19.6453L25.8697 19.6865L25.8227 19.71L25.7933 19.7747L25.7521 19.7924L25.7462 19.8394L25.6756 19.863C25.6442 19.9061 25.607 19.9335 25.5639 19.9453L25.5462 19.9512C25.5109 19.9983 25.4697 20.0277 25.4109 20.0277C25.3874 20.0433 25.3599 20.0512 25.3286 20.0512L25.2933 20.0747L25.258 20.0865L25.205 20.1218H25.158L25.1109 20.1335L25.0462 20.11L24.8933 20.0983L24.8403 20.0159L24.758 19.9277L24.7756 19.8688L24.7168 19.7453L24.7403 19.6983L24.7286 19.61L24.7403 19.5571V19.4865C24.7403 19.4394 24.7521 19.4041 24.7756 19.3806C24.7795 19.3571 24.7952 19.3179 24.8227 19.263H24.8462L24.8344 19.2394L24.8462 19.1865V19.1277C24.8639 19.11 24.8756 19.0924 24.8756 19.0865L24.8639 19.0394V19.0218C24.8815 18.9865 24.8933 18.9512 24.8933 18.9159L24.9639 18.81C24.9795 18.8022 24.9893 18.7943 24.9933 18.7865V18.7747H25.005L25.058 18.71L25.0639 18.6277L25.1521 18.5983C25.1874 18.5747 25.2109 18.5394 25.2168 18.4865H25.2639C25.2952 18.4708 25.3207 18.463 25.3403 18.463C25.3639 18.463 25.3835 18.4688 25.3992 18.4806H25.4403L25.5344 18.4453L25.5874 18.4924L25.6286 18.5218H25.658L25.7109 18.5453H25.7403C25.7697 18.5806 25.805 18.6159 25.8521 18.6688L25.858 18.6865L25.8815 18.6983L25.958 18.7983L26.0286 18.9688V19.0041L26.0639 19.1335ZM25.8227 19.2218L25.8168 19.2041C25.805 19.1865 25.7933 19.1688 25.7933 19.1512L25.805 19.1335L25.7697 19.063L25.7756 18.9924L25.7639 18.9747C25.7286 18.9512 25.7109 18.9335 25.7109 18.9159C25.6874 18.9041 25.6756 18.8806 25.6756 18.8453L25.658 18.8394L25.6109 18.7688L25.5815 18.7394L25.505 18.71L25.4756 18.7041C25.4599 18.7041 25.4501 18.7002 25.4462 18.6924L25.3697 18.7688L25.3227 18.8688L25.2462 18.91L25.2344 18.9512L25.1992 18.9688L25.1874 19.063L25.1403 19.0865C25.1344 19.1159 25.1286 19.1512 25.1286 19.1806L25.0697 19.2335L25.0874 19.2453C25.0874 19.2747 25.0756 19.2983 25.0521 19.3218C25.0403 19.3414 25.0286 19.3649 25.0168 19.3924V19.4218V19.4394V19.4806L24.9815 19.5806V19.5983V19.6983L24.9697 19.7512L24.9756 19.7983L25.005 19.8453L25.058 19.863L25.0756 19.8688H25.105H25.1992L25.2168 19.8335H25.2286C25.2462 19.8335 25.2521 19.8394 25.2521 19.8453L25.2874 19.8335L25.3168 19.8453L25.3639 19.81L25.3697 19.8041L25.405 19.7983C25.4227 19.7688 25.458 19.7394 25.5227 19.7159L25.5344 19.6983L25.605 19.6453L25.6462 19.5865L25.6992 19.5571L25.705 19.5394L25.7286 19.4983V19.4512L25.7697 19.4159L25.7815 19.3865L25.805 19.3688C25.7933 19.3375 25.7874 19.3159 25.7874 19.3041C25.7874 19.2806 25.7933 19.263 25.8109 19.2335L25.8227 19.2218Z" fill="white"/>
<path d="M30.6983 19.3979C30.6983 19.4175 30.6827 19.443 30.6513 19.4744L30.6101 19.5391L30.5925 19.6097L30.5631 19.6214L30.5513 19.6391C30.516 19.6508 30.4866 19.6861 30.4689 19.7332C30.4415 19.7646 30.414 19.7881 30.3866 19.8038C30.3709 19.8195 30.3591 19.8273 30.3513 19.8273L30.3336 19.8626L30.2983 19.8685L30.2042 19.9214L30.0807 19.9391L30.0454 19.9273L29.9925 19.9391L29.9689 19.9155C29.9376 19.8959 29.914 19.8783 29.8983 19.8626C29.8689 19.8567 29.8513 19.8332 29.8336 19.792C29.7944 19.7449 29.7748 19.7077 29.7748 19.6802V19.6685L29.7454 19.6214L29.7395 19.6155L29.716 19.5508L29.6807 19.4802L29.6925 19.3979L29.6513 19.3508L29.5983 19.0391C29.5925 18.992 29.5866 18.9626 29.5866 18.9332L29.5807 18.9096L29.5631 18.8861L29.5278 18.9332L29.3983 19.0685L29.3513 19.1449L29.3278 19.1979L29.2866 19.2567L29.2572 19.2861V19.3038L29.2101 19.4155L29.1807 19.4508L29.1454 19.4567L29.1101 19.492C29.1101 19.5391 29.0866 19.5704 29.0395 19.5861L29.0336 19.5979C29.0101 19.6489 28.9866 19.6802 28.9631 19.692L28.9278 19.7449C28.8768 19.792 28.8415 19.8214 28.8219 19.8332C28.816 19.8567 28.8042 19.8802 28.7807 19.8979C28.7807 19.9038 28.7689 19.9097 28.7572 19.9214C28.7513 19.9685 28.716 19.9979 28.6572 20.0155L28.616 20.0214C28.5689 20.0214 28.5278 19.992 28.4925 19.9391L28.4395 19.8508L28.4631 19.7626L28.4513 19.7155L28.4572 19.7097L28.4631 19.6567L28.4219 19.5744L28.4513 19.5273L28.4395 19.4802L28.4631 19.4332L28.4748 19.3449L28.4631 19.3332L28.4866 19.2802L28.4748 19.2567V19.1979L28.4866 19.0861C28.4748 19.0626 28.4748 19.0449 28.4748 19.0391V19.0214V19.0097L28.4631 18.9802L28.4748 18.8626V18.8273V18.7626V18.6685L28.5395 18.5567C28.6101 18.5685 28.6611 18.5861 28.6925 18.6097C28.7199 18.6293 28.7336 18.6665 28.7336 18.7214V18.7508L28.7631 18.7979L28.7454 18.8744L28.7631 19.0155L28.7336 19.0861L28.7454 19.1626V19.2273L28.716 19.2685L28.7454 19.3332L28.716 19.3685V19.4096L28.7336 19.4508L28.7042 19.5273L28.6983 19.5626V19.5979L28.716 19.6332L28.7748 19.5685C28.7748 19.5332 28.7866 19.5097 28.8101 19.492C28.816 19.4685 28.8219 19.4508 28.8395 19.4391L28.8278 19.4332L28.8807 19.3861L28.8866 19.3685V19.3391L28.9454 19.292L28.9631 19.2567L28.9925 19.2391L29.1336 19.0744C29.1278 19.092 29.0866 19.1391 29.016 19.2097V19.2155L29.0219 19.192L29.0689 19.1391L29.1042 19.0744V19.0391L29.1572 19.0214L29.1631 18.9744L29.1807 18.9626V18.9391V18.9155L29.2336 18.8626V18.8449C29.2336 18.8391 29.2336 18.8332 29.2336 18.8332C29.2336 18.7861 29.2572 18.7626 29.3042 18.7626C29.3278 18.7155 29.3572 18.692 29.4042 18.6802L29.4219 18.6508L29.4336 18.6449C29.4532 18.6136 29.4846 18.592 29.5278 18.5802L29.5631 18.5391H29.6513L29.6925 18.5861L29.7336 18.6097L29.7395 18.6214L29.7631 18.6273L29.7748 18.7038L29.8336 18.7391L29.8042 18.8214L29.8513 18.9096V19.0097L29.8748 19.1508L29.8866 19.2802L29.916 19.3567L29.9395 19.4508C29.9552 19.4665 29.965 19.4881 29.9689 19.5155L30.0395 19.5332V19.6038L30.0748 19.6449V19.6567H30.0866L30.1042 19.6802L30.116 19.6626C30.1101 19.6626 30.116 19.6626 30.1336 19.6685C30.1611 19.6685 30.1905 19.6449 30.2219 19.5979L30.2631 19.5861L30.2748 19.5626C30.2807 19.5449 30.2983 19.5332 30.316 19.5214H30.3454L30.3572 19.5097L30.3631 19.492L30.3748 19.4802C30.3983 19.4626 30.416 19.4332 30.4219 19.4038L30.4631 19.3567L30.4689 19.3214L30.4925 19.2685L30.5631 19.2391L30.6572 19.2744L30.6925 19.3802C30.6925 19.3802 30.6944 19.3822 30.6983 19.3861V19.3979Z" fill="white"/>
<path d="M34.6173 19.6867L34.5761 19.7397L34.5349 19.8338L34.5055 19.8573L34.482 19.9102L34.4055 19.9161L34.3585 19.9632H34.2879L34.2408 19.9985L34.2055 19.9867L34.1526 19.9985V20.0279L34.0173 20.0161H33.9643L33.9173 20.0397L33.882 20.022C33.9055 20.0181 33.9251 20.0161 33.9408 20.0161C33.9232 20.0161 33.8643 20.022 33.7643 20.0279L33.7526 20.022L33.7232 20.0161L33.6761 20.0397C33.6643 20.0357 33.6389 20.0299 33.5996 20.022C33.5447 20.0181 33.5094 20.0161 33.4937 20.0161H33.4643C33.4447 20.0083 33.4251 20.0044 33.4055 20.0044C33.3879 20.0044 33.3702 20.0102 33.3467 20.0161L33.2996 19.9867L33.2702 19.975C33.2643 19.975 33.2526 19.975 33.229 19.9632C33.1408 19.9573 33.0938 19.8808 33.0938 19.7397V19.7102L33.1643 19.6573L33.2526 19.6279L33.3173 19.6573H33.3702V19.6691C33.3938 19.6808 33.4114 19.7004 33.4232 19.7279L33.4526 19.7338V19.7808L33.4996 19.7926L33.5114 19.7985L33.982 19.7691L34.0938 19.7514H34.1055L34.1114 19.7338L34.1643 19.7279L34.1702 19.7161C34.2232 19.7102 34.2702 19.6926 34.3114 19.6691L34.3173 19.6514C34.3114 19.6514 34.3055 19.6397 34.2996 19.6279L34.282 19.6338L34.2349 19.5985H34.2055L34.1879 19.5691L34.1938 19.5514L34.1526 19.5632L34.129 19.5338H34.0938C34.0585 19.5338 34.029 19.5279 33.9937 19.5161H33.9643L33.9349 19.5044L33.8879 19.522L33.8585 19.4867H33.8467L33.7938 19.4455L33.682 19.4044L33.6467 19.375L33.5055 19.3514L33.4937 19.322L33.3879 19.2573L33.3349 19.1397L33.2938 19.075L33.2761 18.8867L33.2938 18.8632C33.2938 18.8102 33.3173 18.7632 33.3467 18.722C33.3879 18.6985 33.4055 18.675 33.4055 18.6338L33.4585 18.6279C33.4702 18.6044 33.4879 18.5867 33.5173 18.5691L33.5702 18.5279L33.8055 18.4397L33.8408 18.4279L33.9173 18.4161L34.0349 18.3867L34.2643 18.4044L34.2702 18.4161C34.2938 18.4279 34.3173 18.4455 34.3408 18.4808V18.4985L34.4055 18.5338L34.3761 18.622L34.3702 18.6514C34.3585 18.7142 34.3251 18.7455 34.2702 18.7455C34.229 18.7455 34.1937 18.722 34.1702 18.6808V18.675H34.129L34.0761 18.6867L34.029 18.6514L33.9996 18.6691C33.9683 18.6691 33.9408 18.6789 33.9173 18.6985C33.8781 18.6985 33.8408 18.7142 33.8055 18.7455H33.7585L33.729 18.7632L33.6761 18.7808H33.6702L33.6467 18.7985L33.6173 18.8279L33.6055 18.8338L33.5702 18.8808L33.529 18.9044C33.5232 18.9338 33.5173 18.9632 33.5114 18.9867C33.5173 19.022 33.5232 19.0455 33.529 19.0514C33.533 19.0632 33.5487 19.075 33.5761 19.0867V19.1044L33.6232 19.1279C33.6624 19.1436 33.6918 19.1612 33.7114 19.1808H33.7879L33.829 19.222L33.9114 19.2279L33.9467 19.2514L34.0938 19.2926L34.1055 19.3338L34.1232 19.3044C34.1545 19.3044 34.1977 19.32 34.2526 19.3514L34.3173 19.3632L34.3232 19.3867H34.382L34.482 19.4455C34.4938 19.4769 34.5212 19.5063 34.5643 19.5338L34.6055 19.5573L34.5938 19.5985C34.6094 19.6259 34.6173 19.6514 34.6173 19.675V19.6867Z" fill="white"/>
</svg>
